<?xml version="1.0" encoding="utf-8"?>
<!-- Generator: Adobe Illustrator 16.0.0, SVG Export Plug-In . SVG Version: 6.00 Build 0)  -->
<!DOCTYPE svg PUBLIC "-//W3C//DTD SVG 1.1//EN" "http://www.w3.org/Graphics/SVG/1.1/DTD/svg11.dtd">
<svg version="1.1" id="Layer_1" xmlns="http://www.w3.org/2000/svg" xmlns:xlink="http://www.w3.org/1999/xlink" x="0px" y="0px"
	 width="175.749px" fill="#F8CE0A" height="83.916px" viewBox="0 0 175.749 83.916" enable-background="new 0 0 175.749 83.916"
	 xml:space="preserve">
<g>
	<path fill-rule="evenodd" clip-rule="evenodd" d="M30.615,30.889l4.532-7.849h13.945l-0.365,0.842
		c-0.47,1.085,0.112,2.424,1.192,2.424h2.311c1.1,0,1.621-0.769,1.908-1.533l0.916-2.444c0.435-1.162,0.014-2.215-1.068-2.215
		H42.051c-2.896,0-3.965-2.164-2.174-5.267l6.587-11.409C47.956,0.855,49.848,0,53.275,0h39.536l-3.199,8.278H83.03l-2.635,26.916
		L93.998,0h12.795l7.871,36.962h-13.836l-0.477-7.017H94.27l-2.008,7.017H66.013L72.5,8.278L57.904,8.308
		c-0.457,0.001-2.473,0.16-2.883,1.041c-0.412,0.88,0.558,2.099,1.363,2.099H66.71c2.93,0,3.449,1.384,2.714,4.43l-4.157,17.225
		c-0.769,3.188-3.977,3.859-6.631,3.859H33.686C29.901,36.962,28.175,35.115,30.615,30.889L30.615,30.889z M96.449,22.329h3.387
		l-0.477-7.018h-0.904L96.449,22.329L96.449,22.329z"/>
	<path fill-rule="evenodd" clip-rule="evenodd" d="M107.771,0l8.361,36.962h14.258l-5.193-14.633h0.502l11.078,14.633l15.717,0.017
		l-13.33-14.649c0,0-1.125-1.236,0.525-1.689c1.648-0.453,2.539-2.182,1.428-4.187l-7.313-13.192C132.531,0.962,130.758,0,128.223,0
		H107.771L107.771,0z M120.211,8.278l1.125,3.169h3.133c2.215,0,0.682-3.169-0.541-3.169H120.211L120.211,8.278z"/>
	<polygon fill-rule="evenodd" clip-rule="evenodd" points="26.428,38.142 0,83.916 18.883,83.916 35.437,62.654 36.703,62.654 
		31.079,83.916 47.495,83.916 75.695,38.142 63.052,38.142 49.194,59.384 54.846,38.142 45.369,38.142 25.999,60.51 37.853,38.142 
		26.428,38.142 	"/>
	<path fill-rule="evenodd" clip-rule="evenodd" d="M76.902,38.142h15.709l0.631,45.774H77.339l0.813-8.553h-8.131l-4.6,8.553H48.966
		L76.902,38.142L76.902,38.142z M75.056,66.001h3.985l0.712-7.502H79.09L75.056,66.001L75.056,66.001z"/>
	<path fill-rule="evenodd" clip-rule="evenodd" d="M93.738,38.142l1.092,45.774h16l-2.244-17.915h0.561l9.346,17.915h17.914
		l-12.254-17.038c-0.623-0.865-1.879-2.584,0.164-2.865c2.043-0.282,4.158-1.935,2.646-7.425l-3.791-13.776
		c-0.371-1.348-2.158-4.669-5.83-4.669H93.738L93.738,38.142z M106.414,48.668l0.574,4.576h4.244c1.574,0,1.311-4.576-1.023-4.576
		H106.414L106.414,48.668z"/>
	<path fill-rule="evenodd" clip-rule="evenodd" d="M128.633,38.142h20.154c2.334,0,4.662,0.557,5.729,2.482l6.018,10.857h-15.709
		l-0.666-1.557c-0.293-0.682-1.096-1.257-1.836-1.257h-1.58c-0.951,0-1.494,0.516-1.111,1.491l0.705,1.802
		c0.346,0.882,1.359,1.283,2.307,1.283h13.281c1.621,0,5.635,0.087,6.943,2.445l12.082,21.8c2.125,3.833-0.338,6.427-3.236,6.427
		h-31.322c-3.256,0-5.188-2.363-6.02-5.293l-3.584-12.622h15.047l1.275,3.257c0.301,0.765,1.002,1.659,1.822,1.659h1.902
		c1.078,0,1.82-1.186,1.422-2.115l-1.201-2.801c-0.436-1.015-1.545-1.988-2.648-1.988h-12.375c-3.9,0-6.041-0.818-7.375-5.514
		l-4.553-16.026C123.063,38.806,126.006,38.142,128.633,38.142L128.633,38.142z"/>
</g>
</svg>
